bicep_curl
version=1
nRows=363
nColumns=3
inDegrees=yes

# SIMM Motion File Header:
name bicep_curl
datacolumns 3
datarows 363
otherdata 1
range 0.0000 0.3620
endheader
time	/jointset/r_shoulder/r_shoulder_elev/value	/jointset/r_elbow/r_elbow_flex/value
0.0000	0.0000	78.5400
0.0010	0.0000	78.5221
0.0020	0.0000	78.5045
0.0030	0.0000	78.4873
0.0040	0.0000	78.4704
0.0050	0.0000	78.4538
0.0060	0.0000	78.4376
0.0070	0.0000	78.4217
0.0080	0.0000	78.4061
0.0090	0.0000	78.3909
0.0100	0.0000	78.3759
0.0110	0.0000	78.3614
0.0120	0.0000	78.3471
0.0130	0.0000	78.3332
0.0140	0.0000	78.3196
0.0150	0.0000	78.3063
0.0160	0.0000	78.2934
0.0170	0.0000	78.2807
0.0180	0.0000	78.2685
0.0190	0.0000	78.2565
0.0200	0.0000	78.2449
0.0210	0.0000	78.2336
0.0220	0.0000	78.2227
0.0230	0.0000	78.2120
0.0240	0.0000	78.2017
0.0250	0.0000	78.1918
0.0260	0.0000	78.1821
0.0270	0.0000	78.1728
0.0280	0.0000	78.1638
0.0290	0.0000	78.1552
0.0300	0.0000	78.1469
0.0310	0.0000	78.1389
0.0320	0.0000	78.1312
0.0330	0.0000	78.1239
0.0340	0.0000	78.1169
0.0350	0.0000	78.1102
0.0360	0.0000	78.1039
0.0370	0.0000	78.0979
0.0380	0.0000	78.0922
0.0390	0.0000	78.0869
0.0400	0.0000	78.0818
0.0410	0.0000	78.0772
0.0420	0.0000	78.0728
0.0430	0.0000	78.0688
0.0440	0.0000	78.0651
0.0450	0.0000	78.0617
0.0460	0.0000	78.0587
0.0470	0.0000	78.0560
0.0480	0.0000	78.0536
0.0490	0.0000	78.0515
0.0500	0.0000	78.0498
0.0510	0.0000	78.0484
0.0520	0.0000	78.0474
0.0530	0.0000	78.0467
0.0540	0.0000	78.0463
0.0550	0.0000	78.0462
0.0560	0.0000	78.0465
0.0570	0.0000	78.0471
0.0580	0.0000	78.0480
0.0590	0.0000	78.0492
0.0600	0.0000	78.0508
0.0610	0.0000	78.0527
0.0620	0.0000	78.0550
0.0630	0.0000	78.0575
0.0640	0.0000	78.0605
0.0650	0.0000	78.0637
0.0660	0.0000	78.0673
0.0670	0.0000	78.0712
0.0680	0.0000	78.0754
0.0690	0.0000	78.0799
0.0700	0.0000	78.0848
0.0710	0.0000	78.0900
0.0720	0.0000	78.0956
0.0730	0.0000	78.1015
0.0740	0.0000	78.1077
0.0750	0.0000	78.1142
0.0760	0.0000	78.1211
0.0770	0.0000	78.1283
0.0780	0.0000	78.1358
0.0790	0.0000	78.1436
0.0800	0.0000	78.1518
0.0810	0.0000	78.1603
0.0820	0.0000	78.1692
0.0830	0.0000	78.1784
0.0840	0.0000	78.1879
0.0850	0.0000	78.1977
0.0860	0.0000	78.2079
0.0870	0.0000	78.2184
0.0880	0.0000	78.2292
0.0890	0.0000	78.2404
0.0900	0.0000	78.2519
0.0910	0.0000	78.2637
0.0920	0.0000	78.2758
0.0930	0.0000	78.2883
0.0940	0.0000	78.3011
0.0950	0.0000	78.3142
0.0960	0.0000	78.3277
0.0970	0.0000	78.3415
0.0980	0.0000	78.3556
0.0990	0.0000	78.3701
0.1000	0.0000	78.3849
0.1010	0.0000	78.4000
0.1020	0.0000	78.4154
0.1030	0.0000	78.4312
0.1040	0.0000	78.4473
0.1050	0.0000	78.4638
0.1060	0.0000	78.4805
0.1070	0.0000	78.4976
0.1080	0.0000	78.5151
0.1090	0.0000	78.5328
0.1100	0.0000	78.5509
0.1110	0.0000	78.5693
0.1120	0.0000	78.5881
0.1130	0.0000	78.6072
0.1140	0.0000	78.6266
0.1150	0.0000	78.6463
0.1160	0.0000	78.6664
0.1170	0.0000	78.6868
0.1180	0.0000	78.7075
0.1190	0.0000	78.7286
0.1200	0.0000	78.7500
0.1210	0.0000	78.7717
0.1220	0.0000	78.7937
0.1230	0.0000	78.8161
0.1240	0.0000	78.8388
0.1250	0.0000	78.8619
0.1260	0.0000	78.8852
0.1270	0.0000	78.9089
0.1280	0.0000	78.9330
0.1290	0.0000	78.9573
0.1300	0.0000	78.9820
0.1310	0.0000	79.0071
0.1320	0.0000	79.0324
0.1330	0.0000	79.0581
0.1340	0.0000	79.0841
0.1350	0.0000	79.1104
0.1360	0.0000	79.1371
0.1370	0.0000	79.1641
0.1380	0.0000	79.1914
0.1390	0.0000	79.2191
0.1400	0.0000	79.2471
0.1410	0.0000	79.2754
0.1420	0.0000	79.3041
0.1430	0.0000	79.3331
0.1440	0.0000	79.3624
0.1450	0.0000	79.3920
0.1460	0.0000	79.4220
0.1470	0.0000	79.4523
0.1480	0.0000	79.4829
0.1490	0.0000	79.5139
0.1500	0.0000	79.5452
0.1510	0.0000	79.5768
0.1520	0.0000	79.6088
0.1530	0.0000	79.6410
0.1540	0.0000	79.6737
0.1550	0.0000	79.7066
0.1560	0.0000	79.7399
0.1570	0.0000	79.7735
0.1580	0.0000	79.8074
0.1590	0.0000	79.8417
0.1600	0.0000	79.8763
0.1610	0.0000	79.9112
0.1620	0.0000	79.9465
0.1630	0.0000	79.9820
0.1640	0.0000	80.0179
0.1650	0.0000	80.0542
0.1660	0.0000	80.0908
0.1670	0.0000	80.1277
0.1680	0.0000	80.1649
0.1690	0.0000	80.2025
0.1700	0.0000	80.2404
0.1710	0.0000	80.2786
0.1720	0.0000	80.3172
0.1730	0.0000	80.3560
0.1740	0.0000	80.3953
0.1750	0.0000	80.4348
0.1760	0.0000	80.4747
0.1770	0.0000	80.5149
0.1780	0.0000	80.5554
0.1790	0.0000	80.5963
0.1800	0.0000	80.6375
0.1810	0.0000	80.6790
0.1820	0.0000	80.7209
0.1830	0.0000	80.7630
0.1840	0.0000	80.8056
0.1850	0.0000	80.8484
0.1860	0.0000	80.8916
0.1870	0.0000	80.9351
0.1880	0.0000	80.9789
0.1890	0.0000	81.0231
0.1900	0.0000	81.0676
0.1910	0.0000	81.1124
0.1920	0.0000	81.1576
0.1930	0.0000	81.2031
0.1940	0.0000	81.2489
0.1950	0.0000	81.2950
0.1960	0.0000	81.3415
0.1970	0.0000	81.3883
0.1980	0.0000	81.4355
0.1990	0.0000	81.4829
0.2000	0.0000	81.5307
0.2010	0.0000	81.5789
0.2020	0.0000	81.6273
0.2030	0.0000	81.6761
0.2040	0.0000	81.7252
0.2050	0.0000	81.7747
0.2060	0.0000	81.8244
0.2070	0.0000	81.8746
0.2080	0.0000	81.9250
0.2090	0.0000	81.9758
0.2100	0.0000	82.0269
0.2110	0.0000	82.0783
0.2120	0.0000	82.1300
0.2130	0.0000	82.1821
0.2140	0.0000	82.2346
0.2150	0.0000	82.2873
0.2160	0.0000	82.3404
0.2170	0.0000	82.3938
0.2180	0.0000	82.4475
0.2190	0.0000	82.5016
0.2200	0.0000	82.5560
0.2210	0.0000	82.6107
0.2220	0.0000	82.6658
0.2230	0.0000	82.7212
0.2240	0.0000	82.7769
0.2250	0.0000	82.8330
0.2260	0.0000	82.8893
0.2270	0.0000	82.9460
0.2280	0.0000	83.0031
0.2290	0.0000	83.0605
0.2300	0.0000	83.1182
0.2310	0.0000	83.1762
0.2320	0.0000	83.2346
0.2330	0.0000	83.2932
0.2340	0.0000	83.3523
0.2350	0.0000	83.4116
0.2360	0.0000	83.4713
0.2370	0.0000	83.5313
0.2380	0.0000	83.5917
0.2390	0.0000	83.6523
0.2400	0.0000	83.7133
0.2410	0.0000	83.7747
0.2420	0.0000	83.8363
0.2430	0.0000	83.8983
0.2440	0.0000	83.9606
0.2450	0.0000	84.0233
0.2460	0.0000	84.0863
0.2470	0.0000	84.1496
0.2480	0.0000	84.2132
0.2490	0.0000	84.2772
0.2500	0.0000	84.3415
0.2510	0.0000	84.4061
0.2520	0.0000	84.4711
0.2530	0.0000	84.5364
0.2540	0.0000	84.6020
0.2550	0.0000	84.6680
0.2560	0.0000	84.7343
0.2570	0.0000	84.8009
0.2580	0.0000	84.8678
0.2590	0.0000	84.9351
0.2600	0.0000	85.0027
0.2610	0.0000	85.0706
0.2620	0.0000	85.1389
0.2630	0.0000	85.2075
0.2640	0.0000	85.2764
0.2650	0.0000	85.3457
0.2660	0.0000	85.4152
0.2670	0.0000	85.4852
0.2680	0.0000	85.5554
0.2690	0.0000	85.6260
0.2700	0.0000	85.6969
0.2710	0.0000	85.7681
0.2720	0.0000	85.8397
0.2730	0.0000	85.9116
0.2740	0.0000	85.9838
0.2750	0.0000	86.0564
0.2760	0.0000	86.1292
0.2770	0.0000	86.2025
0.2780	0.0000	86.2760
0.2790	0.0000	86.3499
0.2800	0.0000	86.4241
0.2810	0.0000	86.4986
0.2820	0.0000	86.5735
0.2830	0.0000	86.6487
0.2840	0.0000	86.7242
0.2850	0.0000	86.8001
0.2860	0.0000	86.8763
0.2870	0.0000	86.9528
0.2880	0.0000	87.0296
0.2890	0.0000	87.1068
0.2900	0.0000	87.1843
0.2910	0.0000	87.2621
0.2920	0.0000	87.3403
0.2930	0.0000	87.4188
0.2940	0.0000	87.4976
0.2950	0.0000	87.5768
0.2960	0.0000	87.6563
0.2970	0.0000	87.7361
0.2980	0.0000	87.8162
0.2990	0.0000	87.8967
0.3000	0.0000	87.9775
0.3010	0.0000	88.0587
0.3020	0.0000	88.1401
0.3030	0.0000	88.2219
0.3040	0.0000	88.3041
0.3050	0.0000	88.3865
0.3060	0.0000	88.4693
0.3070	0.0000	88.5524
0.3080	0.0000	88.6359
0.3090	0.0000	88.7196
0.3100	0.0000	88.8038
0.3110	0.0000	88.8882
0.3120	0.0000	88.9730
0.3130	0.0000	89.0581
0.3140	0.0000	89.1435
0.3150	0.0000	89.2292
0.3160	0.0000	89.3153
0.3170	0.0000	89.4018
0.3180	0.0000	89.4885
0.3190	0.0000	89.5756
0.3200	0.0000	89.6630
0.3210	0.0000	89.7507
0.3220	0.0000	89.8388
0.3230	0.0000	89.9272
0.3240	0.0000	90.0159
0.3250	0.0000	90.1050
0.3260	0.0000	90.1944
0.3270	0.0000	90.2841
0.3280	0.0000	90.3742
0.3290	0.0000	90.4645
0.3300	0.0000	90.5552
0.3310	0.0000	90.6463
0.3320	0.0000	90.7377
0.3330	0.0000	90.7929
0.3340	0.0000	90.9939
0.3350	0.0000	91.1942
0.3360	0.0000	91.3936
0.3370	0.0000	91.5921
0.3380	0.0000	91.7899
0.3390	0.0000	91.9868
0.3400	0.0000	92.1829
0.3410	0.0000	92.3782
0.3420	0.0000	92.5727
0.3430	0.0000	92.7664
0.3440	0.0000	92.9592
0.3450	0.0000	93.1512
0.3460	0.0000	93.3424
0.3470	0.0000	93.5327
0.3480	0.0000	93.7223
0.3490	0.0000	93.9110
0.3500	0.0000	94.0989
0.3510	0.0000	94.2860
0.3520	0.0000	94.4722
0.3530	0.0000	94.6577
0.3540	0.0000	94.8423
0.3550	0.0000	95.0261
0.3560	0.0000	95.2090
0.3570	0.0000	95.3912
0.3580	0.0000	95.5725
0.3590	0.0000	95.7530
0.3600	0.0000	95.9327
0.3610	0.0000	96.1116
0.3620	0.0000	96.2896
